<svg class="svg-icon" style="width: 1em; height: 1em;vertical-align: middle;fill: currentColor;overflow: hidden;" viewBox="0 0 1024 1024" version="1.1" xmlns="http://www.w3.org/2000/svg"><path d="M514 912c-219.9 0-398.8-178.9-398.8-398.8S294.1 114.4 514 114.4s398.8 178.9 398.8 398.8S733.9 912 514 912z m0-701.5c-166.9 0-302.7 135.8-302.7 302.7 0 166.9 135.8 302.7 302.7 302.7s302.7-135.8 302.7-302.7c0-166.9-135.8-302.7-302.7-302.7z" fill="#BDD2EF" /><path d="M570.1 569.3h126.3c30.9 0 56.1-25.2 56.1-56.1 0-30.9-25.2-56.1-56.1-56.1H570.1V330.8c0-30.9-25.2-56.1-56.1-56.1-30.9 0-56.1 25.2-56.1 56.1v126.3H331.6c-30.9 0-56.1 25.2-56.1 56.1 0 30.9 25.2 56.1 56.1 56.1h126.3v126.3c0 30.9 25.2 56.1 56.1 56.1s56.1-25.2 56.1-56.1V569.3z" fill="#2867CE" /></svg>